<svg height="2094" width="720" xmlns="http://www.w3.org/2000/svg">
<rect height="2094" fill="#555" width="720"></rect>
<text fill="#7f7" font-family="Courier New" font-size="12" xml:space="preserve">
<tspan x="10" y="26">17 megabytes installed</tspan>
<tspan x="10" y="42"></tspan>
<tspan x="10" y="58">node_modules</tspan>
<tspan x="10" y="74">└─┬ travis-encrypt@2.1.1 </tspan>
<tspan x="10" y="90">  ├── colors@1.1.2 </tspan>
<tspan x="10" y="106">  ├── deep-property@1.1.0 </tspan>
<tspan x="10" y="122">  ├─┬ lodash.merge@3.3.2 </tspan>
<tspan x="10" y="138">  │ ├── lodash._arraycopy@3.0.0 </tspan>
<tspan x="10" y="154">  │ ├── lodash._arrayeach@3.0.0 </tspan>
<tspan x="10" y="170">  │ ├─┬ lodash._createassigner@3.1.1 </tspan>
<tspan x="10" y="186">  │ │ ├── lodash._bindcallback@3.0.1 </tspan>
<tspan x="10" y="202">  │ │ ├── lodash._isiterateecall@3.0.9 </tspan>
<tspan x="10" y="218">  │ │ └── lodash.restparam@3.6.1 </tspan>
<tspan x="10" y="234">  │ ├── lodash._getnative@3.9.1 </tspan>
<tspan x="10" y="250">  │ ├── lodash.isarguments@3.1.0 </tspan>
<tspan x="10" y="266">  │ ├── lodash.isarray@3.0.4 </tspan>
<tspan x="10" y="282">  │ ├─┬ lodash.isplainobject@3.2.0 </tspan>
<tspan x="10" y="298">  │ │ └── lodash._basefor@3.0.3 </tspan>
<tspan x="10" y="314">  │ ├── lodash.istypedarray@3.0.6 </tspan>
<tspan x="10" y="330">  │ ├── lodash.keys@3.1.2 </tspan>
<tspan x="10" y="346">  │ ├── lodash.keysin@3.0.8 </tspan>
<tspan x="10" y="362">  │ └─┬ lodash.toplainobject@3.0.0 </tspan>
<tspan x="10" y="378">  │   └── lodash._basecopy@3.0.1 </tspan>
<tspan x="10" y="394">  ├─┬ read-yaml@1.1.0 </tspan>
<tspan x="10" y="410">  │ ├─┬ extend-shallow@2.0.1 </tspan>
<tspan x="10" y="426">  │ │ └── is-extendable@0.1.1 </tspan>
<tspan x="10" y="442">  │ └─┬ js-yaml@3.8.3 </tspan>
<tspan x="10" y="458">  │   ├─┬ argparse@1.0.9 </tspan>
<tspan x="10" y="474">  │   │ └── sprintf-js@1.0.3 </tspan>
<tspan x="10" y="490">  │   └── esprima@3.1.3 </tspan>
<tspan x="10" y="506">  ├─┬ travis-ci@2.1.1 </tspan>
<tspan x="10" y="522">  │ ├── github@0.1.16 </tspan>
<tspan x="10" y="538">  │ ├── lodash@1.3.1 </tspan>
<tspan x="10" y="554">  │ ├─┬ request@2.74.0 </tspan>
<tspan x="10" y="570">  │ │ ├── aws-sign2@0.6.0 </tspan>
<tspan x="10" y="586">  │ │ ├── aws4@1.6.0 </tspan>
<tspan x="10" y="602">  │ │ ├─┬ bl@1.1.2 </tspan>
<tspan x="10" y="618">  │ │ │ └─┬ readable-stream@2.0.6 </tspan>
<tspan x="10" y="634">  │ │ │   ├── core-util-is@1.0.2 </tspan>
<tspan x="10" y="650">  │ │ │   ├── inherits@2.0.3 </tspan>
<tspan x="10" y="666">  │ │ │   ├── isarray@1.0.0 </tspan>
<tspan x="10" y="682">  │ │ │   ├── process-nextick-args@1.0.7 </tspan>
<tspan x="10" y="698">  │ │ │   ├── string_decoder@0.10.31 </tspan>
<tspan x="10" y="714">  │ │ │   └── util-deprecate@1.0.2 </tspan>
<tspan x="10" y="730">  │ │ ├── caseless@0.11.0 </tspan>
<tspan x="10" y="746">  │ │ ├─┬ combined-stream@1.0.5 </tspan>
<tspan x="10" y="762">  │ │ │ └── delayed-stream@1.0.0 </tspan>
<tspan x="10" y="778">  │ │ ├── extend@3.0.0 </tspan>
<tspan x="10" y="794">  │ │ ├── forever-agent@0.6.1 </tspan>
<tspan x="10" y="810">  │ │ ├─┬ form-data@1.0.1 </tspan>
<tspan x="10" y="826">  │ │ │ └─┬ async@2.3.0 </tspan>
<tspan x="10" y="842">  │ │ │   └── lodash@4.17.4 </tspan>
<tspan x="10" y="858">  │ │ ├─┬ har-validator@2.0.6 </tspan>
<tspan x="10" y="874">  │ │ │ ├─┬ chalk@1.1.3 </tspan>
<tspan x="10" y="890">  │ │ │ │ ├── ansi-styles@2.2.1 </tspan>
<tspan x="10" y="906">  │ │ │ │ ├── escape-string-regexp@1.0.5 </tspan>
<tspan x="10" y="922">  │ │ │ │ ├── has-ansi@2.0.0 </tspan>
<tspan x="10" y="938">  │ │ │ │ └── supports-color@2.0.0 </tspan>
<tspan x="10" y="954">  │ │ │ ├─┬ commander@2.9.0 </tspan>
<tspan x="10" y="970">  │ │ │ │ └── graceful-readlink@1.0.1 </tspan>
<tspan x="10" y="986">  │ │ │ ├─┬ is-my-json-valid@2.16.0 </tspan>
<tspan x="10" y="1002">  │ │ │ │ ├── generate-function@2.0.0 </tspan>
<tspan x="10" y="1018">  │ │ │ │ ├─┬ generate-object-property@1.2.0 </tspan>
<tspan x="10" y="1034">  │ │ │ │ │ └── is-property@1.0.2 </tspan>
<tspan x="10" y="1050">  │ │ │ │ ├── jsonpointer@4.0.1 </tspan>
<tspan x="10" y="1066">  │ │ │ │ └── xtend@4.0.1 </tspan>
<tspan x="10" y="1082">  │ │ │ └─┬ pinkie-promise@2.0.1 </tspan>
<tspan x="10" y="1098">  │ │ │   └── pinkie@2.0.4 </tspan>
<tspan x="10" y="1114">  │ │ ├─┬ hawk@3.1.3 </tspan>
<tspan x="10" y="1130">  │ │ │ ├── boom@2.10.1 </tspan>
<tspan x="10" y="1146">  │ │ │ ├── cryptiles@2.0.5 </tspan>
<tspan x="10" y="1162">  │ │ │ ├── hoek@2.16.3 </tspan>
<tspan x="10" y="1178">  │ │ │ └── sntp@1.0.9 </tspan>
<tspan x="10" y="1194">  │ │ ├─┬ http-signature@1.1.1 </tspan>
<tspan x="10" y="1210">  │ │ │ ├── assert-plus@0.2.0 </tspan>
<tspan x="10" y="1226">  │ │ │ ├─┬ jsprim@1.4.0 </tspan>
<tspan x="10" y="1242">  │ │ │ │ ├── assert-plus@1.0.0 </tspan>
<tspan x="10" y="1258">  │ │ │ │ ├── extsprintf@1.0.2 </tspan>
<tspan x="10" y="1274">  │ │ │ │ ├── json-schema@0.2.3 </tspan>
<tspan x="10" y="1290">  │ │ │ │ └── verror@1.3.6 </tspan>
<tspan x="10" y="1306">  │ │ │ └─┬ sshpk@1.13.0 </tspan>
<tspan x="10" y="1322">  │ │ │   ├── asn1@0.2.3 </tspan>
<tspan x="10" y="1338">  │ │ │   ├── assert-plus@1.0.0 </tspan>
<tspan x="10" y="1354">  │ │ │   ├── bcrypt-pbkdf@1.0.1 </tspan>
<tspan x="10" y="1370">  │ │ │   ├─┬ dashdash@1.14.1 </tspan>
<tspan x="10" y="1386">  │ │ │   │ └── assert-plus@1.0.0 </tspan>
<tspan x="10" y="1402">  │ │ │   ├── ecc-jsbn@0.1.1 </tspan>
<tspan x="10" y="1418">  │ │ │   ├─┬ getpass@0.1.6 </tspan>
<tspan x="10" y="1434">  │ │ │   │ └── assert-plus@1.0.0 </tspan>
<tspan x="10" y="1450">  │ │ │   ├── jodid25519@1.0.2 </tspan>
<tspan x="10" y="1466">  │ │ │   ├── jsbn@0.1.1 </tspan>
<tspan x="10" y="1482">  │ │ │   └── tweetnacl@0.14.5 </tspan>
<tspan x="10" y="1498">  │ │ ├── is-typedarray@1.0.0 </tspan>
<tspan x="10" y="1514">  │ │ ├── isstream@0.1.2 </tspan>
<tspan x="10" y="1530">  │ │ ├── json-stringify-safe@5.0.1 </tspan>
<tspan x="10" y="1546">  │ │ ├─┬ mime-types@2.1.15 </tspan>
<tspan x="10" y="1562">  │ │ │ └── mime-db@1.27.0 </tspan>
<tspan x="10" y="1578">  │ │ ├── node-uuid@1.4.8 </tspan>
<tspan x="10" y="1594">  │ │ ├── oauth-sign@0.8.2 </tspan>
<tspan x="10" y="1610">  │ │ ├── qs@6.2.3 </tspan>
<tspan x="10" y="1626">  │ │ ├── stringstream@0.0.5 </tspan>
<tspan x="10" y="1642">  │ │ ├─┬ tough-cookie@2.3.2 </tspan>
<tspan x="10" y="1658">  │ │ │ └── punycode@1.4.1 </tspan>
<tspan x="10" y="1674">  │ │ └── tunnel-agent@0.4.3 </tspan>
<tspan x="10" y="1690">  │ └── underscore.string@2.2.1 </tspan>
<tspan x="10" y="1706">  ├─┬ ursa@0.9.4 </tspan>
<tspan x="10" y="1722">  │ ├── bindings@1.2.1 </tspan>
<tspan x="10" y="1738">  │ └── nan@2.6.2 </tspan>
<tspan x="10" y="1754">  ├─┬ write-yaml@0.2.2 </tspan>
<tspan x="10" y="1770">  │ ├── lazy-cache@0.2.7 </tspan>
<tspan x="10" y="1786">  │ └─┬ write@0.2.1 </tspan>
<tspan x="10" y="1802">  │   └─┬ mkdirp@0.5.1 </tspan>
<tspan x="10" y="1818">  │     └── minimist@0.0.8 </tspan>
<tspan x="10" y="1834">  └─┬ yargs@3.32.0 </tspan>
<tspan x="10" y="1850">    ├── camelcase@2.1.1 </tspan>
<tspan x="10" y="1866">    ├─┬ cliui@3.2.0 </tspan>
<tspan x="10" y="1882">    │ ├─┬ strip-ansi@3.0.1 </tspan>
<tspan x="10" y="1898">    │ │ └── ansi-regex@2.1.1 </tspan>
<tspan x="10" y="1914">    │ └── wrap-ansi@2.1.0 </tspan>
<tspan x="10" y="1930">    ├── decamelize@1.2.0 </tspan>
<tspan x="10" y="1946">    ├─┬ os-locale@1.4.0 </tspan>
<tspan x="10" y="1962">    │ └─┬ lcid@1.0.0 </tspan>
<tspan x="10" y="1978">    │   └── invert-kv@1.0.0 </tspan>
<tspan x="10" y="1994">    ├─┬ string-width@1.0.2 </tspan>
<tspan x="10" y="2010">    │ ├── code-point-at@1.1.0 </tspan>
<tspan x="10" y="2026">    │ └─┬ is-fullwidth-code-point@1.0.0 </tspan>
<tspan x="10" y="2042">    │   └── number-is-nan@1.0.1 </tspan>
<tspan x="10" y="2058">    ├── window-size@0.1.4 </tspan>
<tspan x="10" y="2074">    └── y18n@3.2.1</tspan>
</text>
</svg>
